<svg width="18" height="23" viewBox="0 0 18 23" fill="none" xmlns="http://www.w3.org/2000/svg">
<path d="M11.182 8.966C11.182 8.966 12.125 3.412 8.27302 1C8.21549 1.95424 7.9574 2.88562 7.5156 3.73338C7.07381 4.58114 6.45822 5.32622 5.70902 5.92C4.06302 7.368 0.967018 10.616 1.00002 14.089C0.988995 15.5714 1.39203 17.0274 2.16375 18.2931C2.93546 19.5588 4.04521 20.5839 5.36802 21.253C5.41556 20.5836 5.59615 19.9304 5.89922 19.3317C6.20228 18.7329 6.62173 18.2007 7.13302 17.766C7.56651 17.4329 7.92925 17.0167 8.20003 16.5418C8.4708 16.0669 8.64418 15.5427 8.71002 15C9.84332 15.602 10.8009 16.4879 11.4891 17.571C12.1773 18.6541 12.5725 19.8973 12.636 21.179V21.2C13.8843 20.6272 14.95 19.7204 15.7152 18.5798C16.4804 17.4392 16.9154 16.1093 16.972 14.737C17.056 11.9198 16.1091 9.16873 14.309 7" stroke="#ED592B" stroke-width="2" stroke-miterlimit="10" stroke-linecap="round" stroke-linejoin="round"/>
</svg>
