<svg width="30" height="30" viewBox="0 0 30 30" fill="none" xmlns="http://www.w3.org/2000/svg">
<path d="M16.4141 15L29.707 1.70703C30.0976 1.31641 30.0976 0.683585 29.707 0.292965C29.3164 -0.097655 28.6836 -0.097655 28.293 0.292965L15 13.5859L1.70703 0.292965C1.31641 -0.097655 0.683585 -0.097655 0.292965 0.292965C-0.097655 0.683585 -0.097655 1.31641 0.292965 1.70703L13.5859 15L0.292965 28.293C-0.097655 28.6836 -0.097655 29.3164 0.292965 29.707C0.488275 29.9023 0.744135 30 0.999995 30C1.25586 30 1.51172 29.9023 1.70703 29.707L15 16.4141L28.293 29.707C28.4883 29.9023 28.7441 30 29 30C29.2559 30 29.5117 29.9023 29.707 29.707C30.0976 29.3164 30.0976 28.6836 29.707 28.293L16.4141 15Z" fill="#ED592B"/>
</svg>
