<svg width="88" height="136" viewBox="0 0 88 136" fill="none" xmlns="http://www.w3.org/2000/svg">
<path d="M21.84 47.65C18.2 47.65 14.95 46.74 12.09 44.92C9.23 43.0567 6.97667 40.37 5.33 36.86C3.68333 33.3067 2.86 29.1033 2.86 24.25C2.86 19.3967 3.68333 15.215 5.33 11.705C6.97667 8.15167 9.23 5.465 12.09 3.645C14.95 1.78166 18.2 0.849998 21.84 0.849998C25.48 0.849998 28.73 1.78166 31.59 3.645C34.4933 5.465 36.7683 8.15167 38.415 11.705C40.0617 15.215 40.885 19.3967 40.885 24.25C40.885 29.1033 40.0617 33.3067 38.415 36.86C36.7683 40.37 34.4933 43.0567 31.59 44.92C28.73 46.74 25.48 47.65 21.84 47.65ZM21.84 40.305C25.09 40.305 27.6467 38.9617 29.51 36.275C31.4167 33.5883 32.37 29.58 32.37 24.25C32.37 18.92 31.4167 14.9117 29.51 12.225C27.6467 9.53833 25.09 8.195 21.84 8.195C18.6333 8.195 16.0767 9.53833 14.17 12.225C12.3067 14.9117 11.375 18.92 11.375 24.25C11.375 29.58 12.3067 33.5883 14.17 36.275C16.0767 38.9617 18.6333 40.305 21.84 40.305ZM87.1554 36.665H79.0954V47H70.9054V36.665H45.9454V30.815L68.3704 1.5H77.4054L56.2804 29.515H71.1654V20.35H79.0954V29.515H87.1554V36.665Z" fill="#ED592B" fill-opacity="0.2"/>
<path d="M62 74H28V102L38 94H62V74Z" stroke="#ED592B" stroke-width="2" stroke-miterlimit="10" stroke-linecap="round" stroke-linejoin="round"/>
<path d="M50 114C53.3137 114 56 111.314 56 108C56 104.686 53.3137 102 50 102C46.6863 102 44 104.686 44 108C44 111.314 46.6863 114 50 114Z" stroke="#ED592B" stroke-width="2" stroke-miterlimit="10" stroke-linecap="round" stroke-linejoin="round"/>
<path d="M14 114C17.3137 114 20 111.314 20 108C20 104.686 17.3137 102 14 102C10.6863 102 8 104.686 8 108C8 111.314 10.6863 114 14 114Z" stroke="#ED592B" stroke-width="2" stroke-miterlimit="10" stroke-linecap="round" stroke-linejoin="round"/>
<path d="M26 132V126.035C26 124.615 25.255 123.309 24.033 122.586C22.088 121.435 18.716 120 14 120C9.223 120 5.873 121.426 3.948 122.575C2.736 123.299 2 124.601 2 126.013V132H26Z" stroke="#ED592B" stroke-width="2" stroke-miterlimit="10" stroke-linecap="round" stroke-linejoin="round"/>
<path d="M62 132V126.035C62 124.615 61.255 123.309 60.033 122.586C58.088 121.435 54.716 120 50 120C45.223 120 41.873 121.426 39.948 122.575C38.736 123.299 38 124.601 38 126.013V132H62Z" stroke="#ED592B" stroke-width="2" stroke-miterlimit="10" stroke-linecap="round" stroke-linejoin="round"/>
</svg>
