<svg width="69" height="136" viewBox="0 0 69 136" fill="none" xmlns="http://www.w3.org/2000/svg">
<path d="M21.84 47.65C18.2 47.65 14.95 46.74 12.09 44.92C9.23 43.0567 6.97667 40.37 5.33 36.86C3.68333 33.3067 2.86 29.1033 2.86 24.25C2.86 19.3967 3.68333 15.215 5.33 11.705C6.97667 8.15167 9.23 5.465 12.09 3.645C14.95 1.78166 18.2 0.849998 21.84 0.849998C25.48 0.849998 28.73 1.78166 31.59 3.645C34.4933 5.465 36.7683 8.15167 38.415 11.705C40.0617 15.215 40.885 19.3967 40.885 24.25C40.885 29.1033 40.0617 33.3067 38.415 36.86C36.7683 40.37 34.4933 43.0567 31.59 44.92C28.73 46.74 25.48 47.65 21.84 47.65ZM21.84 40.305C25.09 40.305 27.6467 38.9617 29.51 36.275C31.4167 33.5883 32.37 29.58 32.37 24.25C32.37 18.92 31.4167 14.9117 29.51 12.225C27.6467 9.53833 25.09 8.195 21.84 8.195C18.6333 8.195 16.0767 9.53833 14.17 12.225C12.3067 14.9117 11.375 18.92 11.375 24.25C11.375 29.58 12.3067 33.5883 14.17 36.275C16.0767 38.9617 18.6333 40.305 21.84 40.305ZM62.008 1.5V47H53.558V8.585H43.938V1.5H62.008Z" fill="#ED592B" fill-opacity="0.2"/>
<path d="M32 128V101.333" stroke="#ED592B" stroke-width="2" stroke-miterlimit="10" stroke-linecap="round" stroke-linejoin="round"/>
<path d="M42.6667 117.333L32 128L21.3333 117.333" stroke="#ED592B" stroke-width="2" stroke-miterlimit="10" stroke-linecap="round" stroke-linejoin="round"/>
<path d="M18.6667 130.667H8.00002C6.58553 130.667 5.22898 130.105 4.22878 129.105C3.22859 128.105 2.66669 126.748 2.66669 125.333V77.3335H24L32 88.0002H61.3334V125.333C61.3334 126.748 60.7714 128.105 59.7713 129.105C58.7711 130.105 57.4145 130.667 56 130.667H45.3334" stroke="#ED592B" stroke-width="2" stroke-miterlimit="10" stroke-linecap="round" stroke-linejoin="round"/>
</svg>
