<svg width="82" height="136" viewBox="0 0 82 136" fill="none" xmlns="http://www.w3.org/2000/svg">
<path d="M21.84 47.65C18.2 47.65 14.95 46.74 12.09 44.92C9.23 43.0567 6.97667 40.37 5.33 36.86C3.68333 33.3067 2.86 29.1033 2.86 24.25C2.86 19.3967 3.68333 15.215 5.33 11.705C6.97667 8.15167 9.23 5.465 12.09 3.645C14.95 1.78166 18.2 0.849998 21.84 0.849998C25.48 0.849998 28.73 1.78166 31.59 3.645C34.4933 5.465 36.7683 8.15167 38.415 11.705C40.0617 15.215 40.885 19.3967 40.885 24.25C40.885 29.1033 40.0617 33.3067 38.415 36.86C36.7683 40.37 34.4933 43.0567 31.59 44.92C28.73 46.74 25.48 47.65 21.84 47.65ZM21.84 40.305C25.09 40.305 27.6467 38.9617 29.51 36.275C31.4167 33.5883 32.37 29.58 32.37 24.25C32.37 18.92 31.4167 14.9117 29.51 12.225C27.6467 9.53833 25.09 8.195 21.84 8.195C18.6333 8.195 16.0767 9.53833 14.17 12.225C12.3067 14.9117 11.375 18.92 11.375 24.25C11.375 29.58 12.3067 33.5883 14.17 36.275C16.0767 38.9617 18.6333 40.305 21.84 40.305ZM79.233 39.85V47H45.693V41.345L63.763 24.185C65.7996 22.235 67.1646 20.545 67.858 19.115C68.5946 17.6417 68.963 16.19 68.963 14.76C68.963 12.6367 68.248 11.0117 66.818 9.885C65.388 8.75833 63.2863 8.195 60.513 8.195C55.8763 8.195 52.323 9.77667 49.853 12.94L43.938 8.39C45.7146 6.00666 48.098 4.165 51.088 2.865C54.1213 1.52166 57.5013 0.849998 61.228 0.849998C66.168 0.849998 70.1113 2.02 73.058 4.36C76.0046 6.7 77.478 9.885 77.478 13.915C77.478 16.385 76.958 18.7033 75.918 20.87C74.878 23.0367 72.8846 25.5067 69.938 28.28L57.783 39.85H79.233Z" fill="#ED592B" fill-opacity="0.2"/>
<path d="M34.585 79.585L14 89L7 125L44 119L52.952 97.952" stroke="#ED592B" stroke-width="2" stroke-miterlimit="10" stroke-linecap="round" stroke-linejoin="round"/>
<path d="M7 125L26.464 106.536" stroke="#ED592B" stroke-width="2" stroke-miterlimit="10" stroke-linecap="round" stroke-linejoin="round"/>
<path d="M58 103L30 75" stroke="#ED592B" stroke-width="2" stroke-miterlimit="10" stroke-linecap="round" stroke-linejoin="round"/>
<path d="M33.5351 106.535C35.4877 104.583 35.4877 101.417 33.5351 99.4645C31.5825 97.5119 28.4167 97.5119 26.4641 99.4645C24.5115 101.417 24.5115 104.583 26.4641 106.535C28.4167 108.488 31.5825 108.488 33.5351 106.535Z" stroke="#ED592B" stroke-width="2" stroke-miterlimit="10" stroke-linecap="round" stroke-linejoin="round"/>
<path d="M2 134H62" stroke="#ED592B" stroke-width="2" stroke-miterlimit="10" stroke-linecap="round" stroke-linejoin="round"/>
</svg>
