<svg width="88" height="136" viewBox="0 0 88 136" fill="none" xmlns="http://www.w3.org/2000/svg">
<path d="M21.84 47.65C18.2 47.65 14.95 46.74 12.09 44.92C9.23 43.0567 6.97667 40.37 5.33 36.86C3.68333 33.3067 2.86 29.1033 2.86 24.25C2.86 19.3967 3.68333 15.215 5.33 11.705C6.97667 8.15167 9.23 5.465 12.09 3.645C14.95 1.78166 18.2 0.849998 21.84 0.849998C25.48 0.849998 28.73 1.78166 31.59 3.645C34.4933 5.465 36.7683 8.15167 38.415 11.705C40.0617 15.215 40.885 19.3967 40.885 24.25C40.885 29.1033 40.0617 33.3067 38.415 36.86C36.7683 40.37 34.4933 43.0567 31.59 44.92C28.73 46.74 25.48 47.65 21.84 47.65ZM21.84 40.305C25.09 40.305 27.6467 38.9617 29.51 36.275C31.4167 33.5883 32.37 29.58 32.37 24.25C32.37 18.92 31.4167 14.9117 29.51 12.225C27.6467 9.53833 25.09 8.195 21.84 8.195C18.6333 8.195 16.0767 9.53833 14.17 12.225C12.3067 14.9117 11.375 18.92 11.375 24.25C11.375 29.58 12.3067 33.5883 14.17 36.275C16.0767 38.9617 18.6333 40.305 21.84 40.305ZM60.8304 19.115C67.2437 19.115 71.9887 20.3717 75.0654 22.885C78.142 25.355 79.6804 28.735 79.6804 33.025C79.6804 35.755 79.0087 38.225 77.6654 40.435C76.322 42.645 74.307 44.4 71.6204 45.7C68.9337 47 65.6187 47.65 61.6754 47.65C58.4254 47.65 55.2837 47.195 52.2504 46.285C49.217 45.3317 46.6604 44.0317 44.5804 42.385L48.1554 35.82C49.8454 37.2067 51.8604 38.3117 54.2004 39.135C56.5837 39.915 59.032 40.305 61.5454 40.305C64.5354 40.305 66.8754 39.6983 68.5654 38.485C70.2987 37.2283 71.1654 35.5167 71.1654 33.35C71.1654 31.01 70.2337 29.255 68.3704 28.085C66.5504 26.8717 63.4087 26.265 58.9454 26.265H47.9604L50.3004 1.5H77.0154V8.585H57.4504L56.4754 19.115H60.8304Z" fill="#ED592B" fill-opacity="0.2"/>
<path d="M28 106H12V122H28V106Z" stroke="#ED592B" stroke-width="2" stroke-miterlimit="10" stroke-linecap="round" stroke-linejoin="round"/>
<path d="M37.999 88H62V134H2V88H25.999" stroke="#ED592B" stroke-width="2" stroke-miterlimit="10" stroke-linecap="round" stroke-linejoin="round"/>
<path d="M38 94H26V80C26 76.686 28.686 74 32 74C35.314 74 38 76.686 38 80V94Z" stroke="#ED592B" stroke-width="2" stroke-miterlimit="10" stroke-linecap="round" stroke-linejoin="round"/>
<path d="M36 108H52" stroke="#ED592B" stroke-width="2" stroke-miterlimit="10" stroke-linecap="round" stroke-linejoin="round"/>
<path d="M36 120H52" stroke="#ED592B" stroke-width="2" stroke-miterlimit="10" stroke-linecap="round" stroke-linejoin="round"/>
<path d="M32 83C33.1046 83 34 82.1046 34 81C34 79.8954 33.1046 79 32 79C30.8954 79 30 79.8954 30 81C30 82.1046 30.8954 83 32 83Z" fill="#ED592B"/>
</svg>
