<svg width="82" height="136" viewBox="0 0 82 136" fill="none" xmlns="http://www.w3.org/2000/svg">
<path d="M21.84 47.65C18.2 47.65 14.95 46.74 12.09 44.92C9.23 43.0567 6.97667 40.37 5.33 36.86C3.68333 33.3067 2.86 29.1033 2.86 24.25C2.86 19.3967 3.68333 15.215 5.33 11.705C6.97667 8.15167 9.23 5.465 12.09 3.645C14.95 1.78166 18.2 0.849998 21.84 0.849998C25.48 0.849998 28.73 1.78166 31.59 3.645C34.4933 5.465 36.7683 8.15167 38.415 11.705C40.0617 15.215 40.885 19.3967 40.885 24.25C40.885 29.1033 40.0617 33.3067 38.415 36.86C36.7683 40.37 34.4933 43.0567 31.59 44.92C28.73 46.74 25.48 47.65 21.84 47.65ZM21.84 40.305C25.09 40.305 27.6467 38.9617 29.51 36.275C31.4167 33.5883 32.37 29.58 32.37 24.25C32.37 18.92 31.4167 14.9117 29.51 12.225C27.6467 9.53833 25.09 8.195 21.84 8.195C18.6333 8.195 16.0767 9.53833 14.17 12.225C12.3067 14.9117 11.375 18.92 11.375 24.25C11.375 29.58 12.3067 33.5883 14.17 36.275C16.0767 38.9617 18.6333 40.305 21.84 40.305ZM65.3306 20.285C69.5339 20.805 72.7406 22.235 74.9506 24.575C77.1606 26.915 78.2656 29.84 78.2656 33.35C78.2656 35.9933 77.5939 38.3983 76.2506 40.565C74.9073 42.7317 72.8706 44.465 70.1406 45.765C67.4539 47.0217 64.1606 47.65 60.2606 47.65C57.0106 47.65 53.8689 47.195 50.8356 46.285C47.8456 45.3317 45.2889 44.0317 43.1656 42.385L46.8056 35.82C48.4523 37.2067 50.4456 38.3117 52.7856 39.135C55.1689 39.915 57.6173 40.305 60.1306 40.305C63.1206 40.305 65.4606 39.6983 67.1506 38.485C68.8839 37.2283 69.7506 35.5383 69.7506 33.415C69.7506 31.2917 68.9273 29.645 67.2806 28.475C65.6773 27.2617 63.2073 26.655 59.8706 26.655H55.7106V20.87L66.0456 8.585H45.3756V1.5H76.3806V7.155L65.3306 20.285Z" fill="#ED592B" fill-opacity="0.2"/>
<path d="M5 92V127C5 128.326 5.52678 129.598 6.46447 130.536C7.40215 131.473 8.67392 132 10 132H54C55.3261 132 56.5979 131.473 57.5355 130.536C58.4732 129.598 59 128.326 59 127V92" stroke="#ED592B" stroke-width="2" stroke-miterlimit="10" stroke-linecap="round" stroke-linejoin="round"/>
<path d="M11 109V76H53V109" stroke="#ED592B" stroke-width="2" stroke-miterlimit="10" stroke-linecap="round" stroke-linejoin="round"/>
<path d="M5 115H22V122H42V115H59" stroke="#ED592B" stroke-width="2" stroke-miterlimit="10" stroke-linecap="round" stroke-linejoin="round"/>
<path d="M22 96L28 102L42 88" stroke="#ED592B" stroke-width="2" stroke-miterlimit="10" stroke-linecap="round" stroke-linejoin="round"/>
</svg>
