<svg width="43" height="24" viewBox="0 0 43 24" fill="none" xmlns="http://www.w3.org/2000/svg">
<path d="M23.5809 23.9894C24.672 23.9894 25.1181 23.2934 25.1056 22.4209C25.05 19.1346 26.3848 17.3655 28.7945 19.6712C31.4604 22.222 32.0122 23.9894 35.2496 23.9894H40.9827C42.4303 23.9894 43 23.5437 43 22.8443C43 21.3649 40.4541 18.754 38.2971 16.8375C35.2764 14.1547 35.1349 14.0912 37.7363 10.8616C40.963 6.85191 45.1839 1.71426 41.4503 1.71426H34.3179C32.9348 1.71426 32.8345 2.45997 32.3418 3.57081C30.5592 7.59419 27.1713 12.8055 25.8849 12.0084C24.5394 11.177 25.1557 7.8839 25.2579 2.98968C25.2847 1.69712 25.2776 0.810846 23.2137 0.351424C22.0867 0.102856 20.9903 0 19.9727 0C15.9004 0 13.0912 1.63369 14.6875 1.91826C17.5021 2.42054 17.2315 8.24732 16.5758 10.7639C15.4328 15.1455 11.1365 7.29419 9.34674 3.38396C8.91496 2.44454 8.78238 1.71426 7.24161 1.71426H1.40998C0.52852 1.71426 0 1.98855 0 2.59882C0 3.63081 5.30311 14.1187 10.3662 19.3472C15.3038 24.4471 20.1841 23.9894 23.5809 23.9894Z" fill="white" fill-opacity="0.5"/>
</svg>
