<svg width="32" height="32" viewBox="0 0 32 32" fill="none" xmlns="http://www.w3.org/2000/svg">
<path d="M31.6667 9.60006C31.6667 9.60006 31.3333 7.40006 30.4 6.40007C29.2 5.1334 27.8 5.1334 27.2 5.06673C22.7333 4.7334 16 4.7334 16 4.7334C16 4.7334 9.26667 4.7334 4.8 5.06673C4.2 5.1334 2.8 5.1334 1.6 6.40007C0.666667 7.40006 0.333333 9.60006 0.333333 9.60006C0.333333 9.60006 0 12.2001 0 14.8001V17.2001C0 19.8001 0.333333 22.4001 0.333333 22.4001C0.333333 22.4001 0.666667 24.6001 1.6 25.6001C2.8 26.8667 4.4 26.8667 5.13333 27.0001C7.66667 27.2667 16 27.3334 16 27.3334C16 27.3334 22.7333 27.3334 27.2 27.0001C27.8 26.9334 29.2 26.9334 30.4 25.6667C31.3333 24.6667 31.6667 22.4667 31.6667 22.4667C31.6667 22.4667 32 19.8667 32 17.2667V14.8667C32 12.2001 31.6667 9.60006 31.6667 9.60006ZM12.6667 20.1334V11.1334L21.3333 15.6667L12.6667 20.1334Z" fill="#98999A"/>
</svg>
